<mxfile host="Electron" agent="Mozilla/5.0 (Windows NT 10.0; Win64; x64) AppleWebKit/537.36 (KHTML, like Gecko) draw.io/24.7.17 Chrome/128.0.6613.36 Electron/32.0.1 Safari/537.36" version="24.7.17">
  <diagram name="Page-1" id="-ZOmzpzyz5TQpYy-jb5N">
    <mxGraphModel dx="3240" dy="1407" grid="1" gridSize="10" guides="1" tooltips="1" connect="1" arrows="1" fold="1" page="1" pageScale="1" pageWidth="850" pageHeight="1100" math="0" shadow="0">
      <root>
        <mxCell id="0" />
        <mxCell id="1" parent="0" />
        <mxCell id="iZeeqE-felRHn36er2oS-2" value="If Drum R/W or IO R/W&lt;div&gt;Then right&amp;nbsp;&lt;span style=&quot;background-color: initial;&quot;&gt;Else down&lt;/span&gt;&lt;/div&gt;" style="shape=hexagon;perimeter=hexagonPerimeter2;whiteSpace=wrap;html=1;fixedSize=1;" parent="1" vertex="1">
          <mxGeometry x="-100" y="220" width="200" height="40" as="geometry" />
        </mxCell>
        <mxCell id="iZeeqE-felRHn36er2oS-7" value="Grab 16-bit instruction&lt;div&gt;from Core Memory at PC store in IR&lt;/div&gt;" style="rounded=1;whiteSpace=wrap;html=1;" parent="1" vertex="1">
          <mxGeometry x="-100" y="80" width="200" height="40" as="geometry" />
        </mxCell>
        <mxCell id="iZeeqE-felRHn36er2oS-17" value="State &#39;0000&#39;" style="rounded=1;whiteSpace=wrap;html=1;" parent="1" vertex="1">
          <mxGeometry x="-710" y="360" width="70" height="40" as="geometry" />
        </mxCell>
        <mxCell id="iZeeqE-felRHn36er2oS-18" value="" style="endArrow=classic;html=1;rounded=0;exitX=0.5;exitY=1;exitDx=0;exitDy=0;entryX=0.5;entryY=0;entryDx=0;entryDy=0;" parent="1" source="iZeeqE-felRHn36er2oS-7" edge="1">
          <mxGeometry width="50" height="50" relative="1" as="geometry">
            <mxPoint x="100" y="140" as="sourcePoint" />
            <mxPoint y="150" as="targetPoint" />
          </mxGeometry>
        </mxCell>
        <mxCell id="HW3E6B3zxRdl9fnHACI2-1" value="State &#39;0001&#39;" style="rounded=1;whiteSpace=wrap;html=1;" parent="1" vertex="1">
          <mxGeometry x="-620" y="360" width="70" height="40" as="geometry" />
        </mxCell>
        <mxCell id="HW3E6B3zxRdl9fnHACI2-2" value="State &#39;0010&#39;" style="rounded=1;whiteSpace=wrap;html=1;" parent="1" vertex="1">
          <mxGeometry x="-530" y="360" width="70" height="40" as="geometry" />
        </mxCell>
        <mxCell id="HW3E6B3zxRdl9fnHACI2-3" value="State &#39;0011&#39;" style="rounded=1;whiteSpace=wrap;html=1;" parent="1" vertex="1">
          <mxGeometry x="-440" y="360" width="70" height="40" as="geometry" />
        </mxCell>
        <mxCell id="HW3E6B3zxRdl9fnHACI2-4" value="State &#39;0100&#39;" style="rounded=1;whiteSpace=wrap;html=1;" parent="1" vertex="1">
          <mxGeometry x="-350" y="360" width="70" height="40" as="geometry" />
        </mxCell>
        <mxCell id="HW3E6B3zxRdl9fnHACI2-5" value="State &#39;0101&#39;" style="rounded=1;whiteSpace=wrap;html=1;" parent="1" vertex="1">
          <mxGeometry x="-260" y="360" width="70" height="40" as="geometry" />
        </mxCell>
        <mxCell id="HW3E6B3zxRdl9fnHACI2-6" value="State &#39;0110&#39;" style="rounded=1;whiteSpace=wrap;html=1;" parent="1" vertex="1">
          <mxGeometry x="-170" y="360" width="70" height="40" as="geometry" />
        </mxCell>
        <mxCell id="HW3E6B3zxRdl9fnHACI2-7" value="State &#39;0111&#39;" style="rounded=1;whiteSpace=wrap;html=1;" parent="1" vertex="1">
          <mxGeometry x="-80" y="360" width="70" height="40" as="geometry" />
        </mxCell>
        <mxCell id="HW3E6B3zxRdl9fnHACI2-8" value="State &#39;1000&#39;" style="rounded=1;whiteSpace=wrap;html=1;" parent="1" vertex="1">
          <mxGeometry x="10" y="360" width="70" height="40" as="geometry" />
        </mxCell>
        <mxCell id="HW3E6B3zxRdl9fnHACI2-9" value="State &#39;1001&#39;" style="rounded=1;whiteSpace=wrap;html=1;" parent="1" vertex="1">
          <mxGeometry x="100" y="360" width="70" height="40" as="geometry" />
        </mxCell>
        <mxCell id="HW3E6B3zxRdl9fnHACI2-10" value="State &#39;1010&#39;" style="rounded=1;whiteSpace=wrap;html=1;" parent="1" vertex="1">
          <mxGeometry x="190" y="360" width="70" height="40" as="geometry" />
        </mxCell>
        <mxCell id="HW3E6B3zxRdl9fnHACI2-11" value="State &#39;1011&#39;" style="rounded=1;whiteSpace=wrap;html=1;" parent="1" vertex="1">
          <mxGeometry x="280" y="360" width="70" height="40" as="geometry" />
        </mxCell>
        <mxCell id="HW3E6B3zxRdl9fnHACI2-12" value="State &#39;1100&#39;" style="rounded=1;whiteSpace=wrap;html=1;" parent="1" vertex="1">
          <mxGeometry x="370" y="360" width="70" height="40" as="geometry" />
        </mxCell>
        <mxCell id="HW3E6B3zxRdl9fnHACI2-13" value="State &#39;1101&#39;" style="rounded=1;whiteSpace=wrap;html=1;" parent="1" vertex="1">
          <mxGeometry x="460" y="360" width="70" height="40" as="geometry" />
        </mxCell>
        <mxCell id="HW3E6B3zxRdl9fnHACI2-14" value="State &#39;1110&#39;" style="rounded=1;whiteSpace=wrap;html=1;" parent="1" vertex="1">
          <mxGeometry x="550" y="360" width="70" height="40" as="geometry" />
        </mxCell>
        <mxCell id="HW3E6B3zxRdl9fnHACI2-15" value="State &#39;1111&#39;" style="rounded=1;whiteSpace=wrap;html=1;" parent="1" vertex="1">
          <mxGeometry x="640" y="360" width="70" height="40" as="geometry" />
        </mxCell>
        <mxCell id="HW3E6B3zxRdl9fnHACI2-16" value="Step 0" style="text;html=1;align=center;verticalAlign=middle;whiteSpace=wrap;rounded=0;" parent="1" vertex="1">
          <mxGeometry x="-160" y="85" width="60" height="30" as="geometry" />
        </mxCell>
        <mxCell id="HW3E6B3zxRdl9fnHACI2-17" value="Step 1" style="text;html=1;align=center;verticalAlign=middle;whiteSpace=wrap;rounded=0;" parent="1" vertex="1">
          <mxGeometry x="-160" y="155" width="60" height="30" as="geometry" />
        </mxCell>
        <mxCell id="HW3E6B3zxRdl9fnHACI2-18" value="Step 2" style="text;html=1;align=center;verticalAlign=middle;whiteSpace=wrap;rounded=0;" parent="1" vertex="1">
          <mxGeometry x="-160" y="225" width="60" height="30" as="geometry" />
        </mxCell>
        <mxCell id="HW3E6B3zxRdl9fnHACI2-20" value="Step 3" style="text;html=1;align=center;verticalAlign=middle;whiteSpace=wrap;rounded=0;" parent="1" vertex="1">
          <mxGeometry x="-770" y="415" width="60" height="30" as="geometry" />
        </mxCell>
        <mxCell id="HW3E6B3zxRdl9fnHACI2-21" value="Step 4" style="text;html=1;align=center;verticalAlign=middle;whiteSpace=wrap;rounded=0;" parent="1" vertex="1">
          <mxGeometry x="-770" y="465" width="60" height="30" as="geometry" />
        </mxCell>
        <mxCell id="HW3E6B3zxRdl9fnHACI2-22" value="Step 5" style="text;html=1;align=center;verticalAlign=middle;whiteSpace=wrap;rounded=0;" parent="1" vertex="1">
          <mxGeometry x="-770" y="515" width="60" height="30" as="geometry" />
        </mxCell>
        <mxCell id="HW3E6B3zxRdl9fnHACI2-23" value="" style="rounded=1;whiteSpace=wrap;html=1;" parent="1" vertex="1">
          <mxGeometry x="-710" y="410" width="70" height="40" as="geometry" />
        </mxCell>
        <mxCell id="HW3E6B3zxRdl9fnHACI2-24" value="" style="rounded=1;whiteSpace=wrap;html=1;" parent="1" vertex="1">
          <mxGeometry x="-710" y="460" width="70" height="40" as="geometry" />
        </mxCell>
        <mxCell id="HW3E6B3zxRdl9fnHACI2-25" value="" style="rounded=1;whiteSpace=wrap;html=1;" parent="1" vertex="1">
          <mxGeometry x="-710" y="510" width="70" height="40" as="geometry" />
        </mxCell>
        <mxCell id="HW3E6B3zxRdl9fnHACI2-26" value="" style="rounded=1;whiteSpace=wrap;html=1;" parent="1" vertex="1">
          <mxGeometry x="-710" y="560" width="70" height="40" as="geometry" />
        </mxCell>
        <mxCell id="HW3E6B3zxRdl9fnHACI2-27" value="" style="rounded=1;whiteSpace=wrap;html=1;" parent="1" vertex="1">
          <mxGeometry x="-710" y="610" width="70" height="40" as="geometry" />
        </mxCell>
        <mxCell id="HW3E6B3zxRdl9fnHACI2-28" value="" style="rounded=1;whiteSpace=wrap;html=1;" parent="1" vertex="1">
          <mxGeometry x="-710" y="660" width="70" height="40" as="geometry" />
        </mxCell>
        <mxCell id="HW3E6B3zxRdl9fnHACI2-29" value="" style="rounded=1;whiteSpace=wrap;html=1;" parent="1" vertex="1">
          <mxGeometry x="-710" y="710" width="70" height="40" as="geometry" />
        </mxCell>
        <mxCell id="HW3E6B3zxRdl9fnHACI2-30" value="" style="rounded=1;whiteSpace=wrap;html=1;" parent="1" vertex="1">
          <mxGeometry x="-710" y="760" width="70" height="40" as="geometry" />
        </mxCell>
        <mxCell id="HW3E6B3zxRdl9fnHACI2-31" value="" style="rounded=1;whiteSpace=wrap;html=1;" parent="1" vertex="1">
          <mxGeometry x="-710" y="810" width="70" height="40" as="geometry" />
        </mxCell>
        <mxCell id="HW3E6B3zxRdl9fnHACI2-32" value="" style="rounded=1;whiteSpace=wrap;html=1;" parent="1" vertex="1">
          <mxGeometry x="-620" y="410" width="70" height="40" as="geometry" />
        </mxCell>
        <mxCell id="HW3E6B3zxRdl9fnHACI2-33" value="" style="rounded=1;whiteSpace=wrap;html=1;" parent="1" vertex="1">
          <mxGeometry x="-620" y="460" width="70" height="40" as="geometry" />
        </mxCell>
        <mxCell id="HW3E6B3zxRdl9fnHACI2-34" value="" style="rounded=1;whiteSpace=wrap;html=1;" parent="1" vertex="1">
          <mxGeometry x="-620" y="510" width="70" height="40" as="geometry" />
        </mxCell>
        <mxCell id="HW3E6B3zxRdl9fnHACI2-35" value="" style="rounded=1;whiteSpace=wrap;html=1;" parent="1" vertex="1">
          <mxGeometry x="-620" y="560" width="70" height="40" as="geometry" />
        </mxCell>
        <mxCell id="HW3E6B3zxRdl9fnHACI2-36" value="" style="rounded=1;whiteSpace=wrap;html=1;" parent="1" vertex="1">
          <mxGeometry x="-620" y="610" width="70" height="40" as="geometry" />
        </mxCell>
        <mxCell id="HW3E6B3zxRdl9fnHACI2-37" value="" style="rounded=1;whiteSpace=wrap;html=1;" parent="1" vertex="1">
          <mxGeometry x="-620" y="660" width="70" height="40" as="geometry" />
        </mxCell>
        <mxCell id="HW3E6B3zxRdl9fnHACI2-38" value="" style="rounded=1;whiteSpace=wrap;html=1;" parent="1" vertex="1">
          <mxGeometry x="-620" y="710" width="70" height="40" as="geometry" />
        </mxCell>
        <mxCell id="HW3E6B3zxRdl9fnHACI2-39" value="" style="rounded=1;whiteSpace=wrap;html=1;" parent="1" vertex="1">
          <mxGeometry x="-620" y="760" width="70" height="40" as="geometry" />
        </mxCell>
        <mxCell id="HW3E6B3zxRdl9fnHACI2-40" value="" style="rounded=1;whiteSpace=wrap;html=1;" parent="1" vertex="1">
          <mxGeometry x="-620" y="810" width="70" height="40" as="geometry" />
        </mxCell>
        <mxCell id="HW3E6B3zxRdl9fnHACI2-41" value="" style="rounded=1;whiteSpace=wrap;html=1;" parent="1" vertex="1">
          <mxGeometry x="-530" y="410" width="70" height="40" as="geometry" />
        </mxCell>
        <mxCell id="HW3E6B3zxRdl9fnHACI2-42" value="" style="rounded=1;whiteSpace=wrap;html=1;" parent="1" vertex="1">
          <mxGeometry x="-530" y="460" width="70" height="40" as="geometry" />
        </mxCell>
        <mxCell id="HW3E6B3zxRdl9fnHACI2-43" value="" style="rounded=1;whiteSpace=wrap;html=1;" parent="1" vertex="1">
          <mxGeometry x="-530" y="510" width="70" height="40" as="geometry" />
        </mxCell>
        <mxCell id="HW3E6B3zxRdl9fnHACI2-44" value="" style="rounded=1;whiteSpace=wrap;html=1;" parent="1" vertex="1">
          <mxGeometry x="-530" y="560" width="70" height="40" as="geometry" />
        </mxCell>
        <mxCell id="HW3E6B3zxRdl9fnHACI2-45" value="" style="rounded=1;whiteSpace=wrap;html=1;" parent="1" vertex="1">
          <mxGeometry x="-530" y="610" width="70" height="40" as="geometry" />
        </mxCell>
        <mxCell id="HW3E6B3zxRdl9fnHACI2-46" value="" style="rounded=1;whiteSpace=wrap;html=1;" parent="1" vertex="1">
          <mxGeometry x="-530" y="660" width="70" height="40" as="geometry" />
        </mxCell>
        <mxCell id="HW3E6B3zxRdl9fnHACI2-47" value="" style="rounded=1;whiteSpace=wrap;html=1;" parent="1" vertex="1">
          <mxGeometry x="-530" y="710" width="70" height="40" as="geometry" />
        </mxCell>
        <mxCell id="HW3E6B3zxRdl9fnHACI2-48" value="" style="rounded=1;whiteSpace=wrap;html=1;" parent="1" vertex="1">
          <mxGeometry x="-530" y="760" width="70" height="40" as="geometry" />
        </mxCell>
        <mxCell id="HW3E6B3zxRdl9fnHACI2-49" value="" style="rounded=1;whiteSpace=wrap;html=1;" parent="1" vertex="1">
          <mxGeometry x="-530" y="810" width="70" height="40" as="geometry" />
        </mxCell>
        <mxCell id="HW3E6B3zxRdl9fnHACI2-50" value="" style="rounded=1;whiteSpace=wrap;html=1;" parent="1" vertex="1">
          <mxGeometry x="-440" y="410" width="70" height="40" as="geometry" />
        </mxCell>
        <mxCell id="HW3E6B3zxRdl9fnHACI2-51" value="" style="rounded=1;whiteSpace=wrap;html=1;" parent="1" vertex="1">
          <mxGeometry x="-440" y="460" width="70" height="40" as="geometry" />
        </mxCell>
        <mxCell id="HW3E6B3zxRdl9fnHACI2-52" value="" style="rounded=1;whiteSpace=wrap;html=1;" parent="1" vertex="1">
          <mxGeometry x="-440" y="510" width="70" height="40" as="geometry" />
        </mxCell>
        <mxCell id="HW3E6B3zxRdl9fnHACI2-53" value="" style="rounded=1;whiteSpace=wrap;html=1;" parent="1" vertex="1">
          <mxGeometry x="-440" y="560" width="70" height="40" as="geometry" />
        </mxCell>
        <mxCell id="HW3E6B3zxRdl9fnHACI2-54" value="" style="rounded=1;whiteSpace=wrap;html=1;" parent="1" vertex="1">
          <mxGeometry x="-440" y="610" width="70" height="40" as="geometry" />
        </mxCell>
        <mxCell id="HW3E6B3zxRdl9fnHACI2-55" value="" style="rounded=1;whiteSpace=wrap;html=1;" parent="1" vertex="1">
          <mxGeometry x="-440" y="660" width="70" height="40" as="geometry" />
        </mxCell>
        <mxCell id="HW3E6B3zxRdl9fnHACI2-56" value="" style="rounded=1;whiteSpace=wrap;html=1;" parent="1" vertex="1">
          <mxGeometry x="-440" y="710" width="70" height="40" as="geometry" />
        </mxCell>
        <mxCell id="HW3E6B3zxRdl9fnHACI2-57" value="" style="rounded=1;whiteSpace=wrap;html=1;" parent="1" vertex="1">
          <mxGeometry x="-440" y="760" width="70" height="40" as="geometry" />
        </mxCell>
        <mxCell id="HW3E6B3zxRdl9fnHACI2-58" value="" style="rounded=1;whiteSpace=wrap;html=1;" parent="1" vertex="1">
          <mxGeometry x="-440" y="810" width="70" height="40" as="geometry" />
        </mxCell>
        <mxCell id="HW3E6B3zxRdl9fnHACI2-59" value="" style="rounded=1;whiteSpace=wrap;html=1;" parent="1" vertex="1">
          <mxGeometry x="-350" y="410" width="70" height="40" as="geometry" />
        </mxCell>
        <mxCell id="HW3E6B3zxRdl9fnHACI2-60" value="" style="rounded=1;whiteSpace=wrap;html=1;" parent="1" vertex="1">
          <mxGeometry x="-350" y="460" width="70" height="40" as="geometry" />
        </mxCell>
        <mxCell id="HW3E6B3zxRdl9fnHACI2-61" value="" style="rounded=1;whiteSpace=wrap;html=1;" parent="1" vertex="1">
          <mxGeometry x="-350" y="510" width="70" height="40" as="geometry" />
        </mxCell>
        <mxCell id="HW3E6B3zxRdl9fnHACI2-62" value="" style="rounded=1;whiteSpace=wrap;html=1;" parent="1" vertex="1">
          <mxGeometry x="-350" y="560" width="70" height="40" as="geometry" />
        </mxCell>
        <mxCell id="HW3E6B3zxRdl9fnHACI2-63" value="" style="rounded=1;whiteSpace=wrap;html=1;" parent="1" vertex="1">
          <mxGeometry x="-350" y="610" width="70" height="40" as="geometry" />
        </mxCell>
        <mxCell id="HW3E6B3zxRdl9fnHACI2-64" value="" style="rounded=1;whiteSpace=wrap;html=1;" parent="1" vertex="1">
          <mxGeometry x="-350" y="660" width="70" height="40" as="geometry" />
        </mxCell>
        <mxCell id="HW3E6B3zxRdl9fnHACI2-65" value="" style="rounded=1;whiteSpace=wrap;html=1;" parent="1" vertex="1">
          <mxGeometry x="-350" y="710" width="70" height="40" as="geometry" />
        </mxCell>
        <mxCell id="HW3E6B3zxRdl9fnHACI2-66" value="" style="rounded=1;whiteSpace=wrap;html=1;" parent="1" vertex="1">
          <mxGeometry x="-350" y="760" width="70" height="40" as="geometry" />
        </mxCell>
        <mxCell id="HW3E6B3zxRdl9fnHACI2-67" value="" style="rounded=1;whiteSpace=wrap;html=1;" parent="1" vertex="1">
          <mxGeometry x="-350" y="810" width="70" height="40" as="geometry" />
        </mxCell>
        <mxCell id="HW3E6B3zxRdl9fnHACI2-68" value="" style="rounded=1;whiteSpace=wrap;html=1;" parent="1" vertex="1">
          <mxGeometry x="-260" y="410" width="70" height="40" as="geometry" />
        </mxCell>
        <mxCell id="HW3E6B3zxRdl9fnHACI2-69" value="" style="rounded=1;whiteSpace=wrap;html=1;" parent="1" vertex="1">
          <mxGeometry x="-260" y="460" width="70" height="40" as="geometry" />
        </mxCell>
        <mxCell id="HW3E6B3zxRdl9fnHACI2-70" value="" style="rounded=1;whiteSpace=wrap;html=1;" parent="1" vertex="1">
          <mxGeometry x="-260" y="510" width="70" height="40" as="geometry" />
        </mxCell>
        <mxCell id="HW3E6B3zxRdl9fnHACI2-71" value="" style="rounded=1;whiteSpace=wrap;html=1;" parent="1" vertex="1">
          <mxGeometry x="-260" y="560" width="70" height="40" as="geometry" />
        </mxCell>
        <mxCell id="HW3E6B3zxRdl9fnHACI2-72" value="" style="rounded=1;whiteSpace=wrap;html=1;" parent="1" vertex="1">
          <mxGeometry x="-260" y="610" width="70" height="40" as="geometry" />
        </mxCell>
        <mxCell id="HW3E6B3zxRdl9fnHACI2-73" value="" style="rounded=1;whiteSpace=wrap;html=1;" parent="1" vertex="1">
          <mxGeometry x="-260" y="660" width="70" height="40" as="geometry" />
        </mxCell>
        <mxCell id="HW3E6B3zxRdl9fnHACI2-74" value="" style="rounded=1;whiteSpace=wrap;html=1;" parent="1" vertex="1">
          <mxGeometry x="-260" y="710" width="70" height="40" as="geometry" />
        </mxCell>
        <mxCell id="HW3E6B3zxRdl9fnHACI2-75" value="" style="rounded=1;whiteSpace=wrap;html=1;" parent="1" vertex="1">
          <mxGeometry x="-260" y="760" width="70" height="40" as="geometry" />
        </mxCell>
        <mxCell id="HW3E6B3zxRdl9fnHACI2-76" value="" style="rounded=1;whiteSpace=wrap;html=1;" parent="1" vertex="1">
          <mxGeometry x="-260" y="810" width="70" height="40" as="geometry" />
        </mxCell>
        <mxCell id="HW3E6B3zxRdl9fnHACI2-77" value="" style="rounded=1;whiteSpace=wrap;html=1;" parent="1" vertex="1">
          <mxGeometry x="-170" y="410" width="70" height="40" as="geometry" />
        </mxCell>
        <mxCell id="HW3E6B3zxRdl9fnHACI2-78" value="" style="rounded=1;whiteSpace=wrap;html=1;" parent="1" vertex="1">
          <mxGeometry x="-170" y="460" width="70" height="40" as="geometry" />
        </mxCell>
        <mxCell id="HW3E6B3zxRdl9fnHACI2-79" value="" style="rounded=1;whiteSpace=wrap;html=1;" parent="1" vertex="1">
          <mxGeometry x="-170" y="510" width="70" height="40" as="geometry" />
        </mxCell>
        <mxCell id="HW3E6B3zxRdl9fnHACI2-80" value="" style="rounded=1;whiteSpace=wrap;html=1;" parent="1" vertex="1">
          <mxGeometry x="-170" y="560" width="70" height="40" as="geometry" />
        </mxCell>
        <mxCell id="HW3E6B3zxRdl9fnHACI2-81" value="" style="rounded=1;whiteSpace=wrap;html=1;" parent="1" vertex="1">
          <mxGeometry x="-170" y="610" width="70" height="40" as="geometry" />
        </mxCell>
        <mxCell id="HW3E6B3zxRdl9fnHACI2-82" value="" style="rounded=1;whiteSpace=wrap;html=1;" parent="1" vertex="1">
          <mxGeometry x="-170" y="660" width="70" height="40" as="geometry" />
        </mxCell>
        <mxCell id="HW3E6B3zxRdl9fnHACI2-83" value="" style="rounded=1;whiteSpace=wrap;html=1;" parent="1" vertex="1">
          <mxGeometry x="-170" y="710" width="70" height="40" as="geometry" />
        </mxCell>
        <mxCell id="HW3E6B3zxRdl9fnHACI2-84" value="" style="rounded=1;whiteSpace=wrap;html=1;" parent="1" vertex="1">
          <mxGeometry x="-170" y="760" width="70" height="40" as="geometry" />
        </mxCell>
        <mxCell id="HW3E6B3zxRdl9fnHACI2-85" value="" style="rounded=1;whiteSpace=wrap;html=1;" parent="1" vertex="1">
          <mxGeometry x="-170" y="810" width="70" height="40" as="geometry" />
        </mxCell>
        <mxCell id="HW3E6B3zxRdl9fnHACI2-86" value="" style="rounded=1;whiteSpace=wrap;html=1;" parent="1" vertex="1">
          <mxGeometry x="-80" y="410" width="70" height="40" as="geometry" />
        </mxCell>
        <mxCell id="HW3E6B3zxRdl9fnHACI2-87" value="" style="rounded=1;whiteSpace=wrap;html=1;" parent="1" vertex="1">
          <mxGeometry x="-80" y="460" width="70" height="40" as="geometry" />
        </mxCell>
        <mxCell id="HW3E6B3zxRdl9fnHACI2-88" value="" style="rounded=1;whiteSpace=wrap;html=1;" parent="1" vertex="1">
          <mxGeometry x="-80" y="510" width="70" height="40" as="geometry" />
        </mxCell>
        <mxCell id="HW3E6B3zxRdl9fnHACI2-89" value="" style="rounded=1;whiteSpace=wrap;html=1;" parent="1" vertex="1">
          <mxGeometry x="-80" y="560" width="70" height="40" as="geometry" />
        </mxCell>
        <mxCell id="HW3E6B3zxRdl9fnHACI2-90" value="" style="rounded=1;whiteSpace=wrap;html=1;" parent="1" vertex="1">
          <mxGeometry x="-80" y="610" width="70" height="40" as="geometry" />
        </mxCell>
        <mxCell id="HW3E6B3zxRdl9fnHACI2-91" value="" style="rounded=1;whiteSpace=wrap;html=1;" parent="1" vertex="1">
          <mxGeometry x="-80" y="660" width="70" height="40" as="geometry" />
        </mxCell>
        <mxCell id="HW3E6B3zxRdl9fnHACI2-92" value="" style="rounded=1;whiteSpace=wrap;html=1;" parent="1" vertex="1">
          <mxGeometry x="-80" y="710" width="70" height="40" as="geometry" />
        </mxCell>
        <mxCell id="HW3E6B3zxRdl9fnHACI2-93" value="" style="rounded=1;whiteSpace=wrap;html=1;" parent="1" vertex="1">
          <mxGeometry x="-80" y="760" width="70" height="40" as="geometry" />
        </mxCell>
        <mxCell id="HW3E6B3zxRdl9fnHACI2-94" value="" style="rounded=1;whiteSpace=wrap;html=1;" parent="1" vertex="1">
          <mxGeometry x="-80" y="810" width="70" height="40" as="geometry" />
        </mxCell>
        <mxCell id="HW3E6B3zxRdl9fnHACI2-95" value="" style="rounded=1;whiteSpace=wrap;html=1;" parent="1" vertex="1">
          <mxGeometry x="10" y="410" width="70" height="40" as="geometry" />
        </mxCell>
        <mxCell id="HW3E6B3zxRdl9fnHACI2-96" value="" style="rounded=1;whiteSpace=wrap;html=1;" parent="1" vertex="1">
          <mxGeometry x="10" y="460" width="70" height="40" as="geometry" />
        </mxCell>
        <mxCell id="HW3E6B3zxRdl9fnHACI2-97" value="" style="rounded=1;whiteSpace=wrap;html=1;" parent="1" vertex="1">
          <mxGeometry x="10" y="510" width="70" height="40" as="geometry" />
        </mxCell>
        <mxCell id="HW3E6B3zxRdl9fnHACI2-98" value="" style="rounded=1;whiteSpace=wrap;html=1;" parent="1" vertex="1">
          <mxGeometry x="10" y="560" width="70" height="40" as="geometry" />
        </mxCell>
        <mxCell id="HW3E6B3zxRdl9fnHACI2-99" value="" style="rounded=1;whiteSpace=wrap;html=1;" parent="1" vertex="1">
          <mxGeometry x="10" y="610" width="70" height="40" as="geometry" />
        </mxCell>
        <mxCell id="HW3E6B3zxRdl9fnHACI2-100" value="" style="rounded=1;whiteSpace=wrap;html=1;" parent="1" vertex="1">
          <mxGeometry x="10" y="660" width="70" height="40" as="geometry" />
        </mxCell>
        <mxCell id="HW3E6B3zxRdl9fnHACI2-101" value="" style="rounded=1;whiteSpace=wrap;html=1;" parent="1" vertex="1">
          <mxGeometry x="10" y="710" width="70" height="40" as="geometry" />
        </mxCell>
        <mxCell id="HW3E6B3zxRdl9fnHACI2-102" value="" style="rounded=1;whiteSpace=wrap;html=1;" parent="1" vertex="1">
          <mxGeometry x="10" y="760" width="70" height="40" as="geometry" />
        </mxCell>
        <mxCell id="HW3E6B3zxRdl9fnHACI2-103" value="" style="rounded=1;whiteSpace=wrap;html=1;" parent="1" vertex="1">
          <mxGeometry x="10" y="810" width="70" height="40" as="geometry" />
        </mxCell>
        <mxCell id="HW3E6B3zxRdl9fnHACI2-104" value="" style="rounded=1;whiteSpace=wrap;html=1;" parent="1" vertex="1">
          <mxGeometry x="100" y="410" width="70" height="40" as="geometry" />
        </mxCell>
        <mxCell id="HW3E6B3zxRdl9fnHACI2-105" value="" style="rounded=1;whiteSpace=wrap;html=1;" parent="1" vertex="1">
          <mxGeometry x="100" y="460" width="70" height="40" as="geometry" />
        </mxCell>
        <mxCell id="HW3E6B3zxRdl9fnHACI2-106" value="" style="rounded=1;whiteSpace=wrap;html=1;" parent="1" vertex="1">
          <mxGeometry x="100" y="510" width="70" height="40" as="geometry" />
        </mxCell>
        <mxCell id="HW3E6B3zxRdl9fnHACI2-107" value="" style="rounded=1;whiteSpace=wrap;html=1;" parent="1" vertex="1">
          <mxGeometry x="100" y="560" width="70" height="40" as="geometry" />
        </mxCell>
        <mxCell id="HW3E6B3zxRdl9fnHACI2-108" value="" style="rounded=1;whiteSpace=wrap;html=1;" parent="1" vertex="1">
          <mxGeometry x="100" y="610" width="70" height="40" as="geometry" />
        </mxCell>
        <mxCell id="HW3E6B3zxRdl9fnHACI2-109" value="" style="rounded=1;whiteSpace=wrap;html=1;" parent="1" vertex="1">
          <mxGeometry x="100" y="660" width="70" height="40" as="geometry" />
        </mxCell>
        <mxCell id="HW3E6B3zxRdl9fnHACI2-110" value="" style="rounded=1;whiteSpace=wrap;html=1;" parent="1" vertex="1">
          <mxGeometry x="100" y="710" width="70" height="40" as="geometry" />
        </mxCell>
        <mxCell id="HW3E6B3zxRdl9fnHACI2-111" value="" style="rounded=1;whiteSpace=wrap;html=1;" parent="1" vertex="1">
          <mxGeometry x="100" y="760" width="70" height="40" as="geometry" />
        </mxCell>
        <mxCell id="HW3E6B3zxRdl9fnHACI2-112" value="" style="rounded=1;whiteSpace=wrap;html=1;" parent="1" vertex="1">
          <mxGeometry x="100" y="810" width="70" height="40" as="geometry" />
        </mxCell>
        <mxCell id="HW3E6B3zxRdl9fnHACI2-113" value="" style="rounded=1;whiteSpace=wrap;html=1;" parent="1" vertex="1">
          <mxGeometry x="190" y="410" width="70" height="40" as="geometry" />
        </mxCell>
        <mxCell id="HW3E6B3zxRdl9fnHACI2-114" value="" style="rounded=1;whiteSpace=wrap;html=1;" parent="1" vertex="1">
          <mxGeometry x="190" y="460" width="70" height="40" as="geometry" />
        </mxCell>
        <mxCell id="HW3E6B3zxRdl9fnHACI2-115" value="" style="rounded=1;whiteSpace=wrap;html=1;" parent="1" vertex="1">
          <mxGeometry x="190" y="510" width="70" height="40" as="geometry" />
        </mxCell>
        <mxCell id="HW3E6B3zxRdl9fnHACI2-116" value="" style="rounded=1;whiteSpace=wrap;html=1;" parent="1" vertex="1">
          <mxGeometry x="190" y="560" width="70" height="40" as="geometry" />
        </mxCell>
        <mxCell id="HW3E6B3zxRdl9fnHACI2-117" value="" style="rounded=1;whiteSpace=wrap;html=1;" parent="1" vertex="1">
          <mxGeometry x="190" y="610" width="70" height="40" as="geometry" />
        </mxCell>
        <mxCell id="HW3E6B3zxRdl9fnHACI2-118" value="" style="rounded=1;whiteSpace=wrap;html=1;" parent="1" vertex="1">
          <mxGeometry x="190" y="660" width="70" height="40" as="geometry" />
        </mxCell>
        <mxCell id="HW3E6B3zxRdl9fnHACI2-119" value="" style="rounded=1;whiteSpace=wrap;html=1;" parent="1" vertex="1">
          <mxGeometry x="190" y="710" width="70" height="40" as="geometry" />
        </mxCell>
        <mxCell id="HW3E6B3zxRdl9fnHACI2-120" value="" style="rounded=1;whiteSpace=wrap;html=1;" parent="1" vertex="1">
          <mxGeometry x="190" y="760" width="70" height="40" as="geometry" />
        </mxCell>
        <mxCell id="HW3E6B3zxRdl9fnHACI2-121" value="" style="rounded=1;whiteSpace=wrap;html=1;" parent="1" vertex="1">
          <mxGeometry x="190" y="810" width="70" height="40" as="geometry" />
        </mxCell>
        <mxCell id="HW3E6B3zxRdl9fnHACI2-122" value="" style="rounded=1;whiteSpace=wrap;html=1;" parent="1" vertex="1">
          <mxGeometry x="280" y="410" width="70" height="40" as="geometry" />
        </mxCell>
        <mxCell id="HW3E6B3zxRdl9fnHACI2-123" value="" style="rounded=1;whiteSpace=wrap;html=1;" parent="1" vertex="1">
          <mxGeometry x="280" y="460" width="70" height="40" as="geometry" />
        </mxCell>
        <mxCell id="HW3E6B3zxRdl9fnHACI2-124" value="" style="rounded=1;whiteSpace=wrap;html=1;" parent="1" vertex="1">
          <mxGeometry x="280" y="510" width="70" height="40" as="geometry" />
        </mxCell>
        <mxCell id="HW3E6B3zxRdl9fnHACI2-125" value="" style="rounded=1;whiteSpace=wrap;html=1;" parent="1" vertex="1">
          <mxGeometry x="280" y="560" width="70" height="40" as="geometry" />
        </mxCell>
        <mxCell id="HW3E6B3zxRdl9fnHACI2-126" value="" style="rounded=1;whiteSpace=wrap;html=1;" parent="1" vertex="1">
          <mxGeometry x="280" y="610" width="70" height="40" as="geometry" />
        </mxCell>
        <mxCell id="HW3E6B3zxRdl9fnHACI2-127" value="" style="rounded=1;whiteSpace=wrap;html=1;" parent="1" vertex="1">
          <mxGeometry x="280" y="660" width="70" height="40" as="geometry" />
        </mxCell>
        <mxCell id="HW3E6B3zxRdl9fnHACI2-128" value="" style="rounded=1;whiteSpace=wrap;html=1;" parent="1" vertex="1">
          <mxGeometry x="280" y="710" width="70" height="40" as="geometry" />
        </mxCell>
        <mxCell id="HW3E6B3zxRdl9fnHACI2-129" value="" style="rounded=1;whiteSpace=wrap;html=1;" parent="1" vertex="1">
          <mxGeometry x="280" y="760" width="70" height="40" as="geometry" />
        </mxCell>
        <mxCell id="HW3E6B3zxRdl9fnHACI2-130" value="" style="rounded=1;whiteSpace=wrap;html=1;" parent="1" vertex="1">
          <mxGeometry x="280" y="810" width="70" height="40" as="geometry" />
        </mxCell>
        <mxCell id="HW3E6B3zxRdl9fnHACI2-131" value="" style="rounded=1;whiteSpace=wrap;html=1;" parent="1" vertex="1">
          <mxGeometry x="370" y="410" width="70" height="40" as="geometry" />
        </mxCell>
        <mxCell id="HW3E6B3zxRdl9fnHACI2-132" value="" style="rounded=1;whiteSpace=wrap;html=1;" parent="1" vertex="1">
          <mxGeometry x="370" y="460" width="70" height="40" as="geometry" />
        </mxCell>
        <mxCell id="HW3E6B3zxRdl9fnHACI2-133" value="" style="rounded=1;whiteSpace=wrap;html=1;" parent="1" vertex="1">
          <mxGeometry x="370" y="510" width="70" height="40" as="geometry" />
        </mxCell>
        <mxCell id="HW3E6B3zxRdl9fnHACI2-134" value="" style="rounded=1;whiteSpace=wrap;html=1;" parent="1" vertex="1">
          <mxGeometry x="370" y="560" width="70" height="40" as="geometry" />
        </mxCell>
        <mxCell id="HW3E6B3zxRdl9fnHACI2-135" value="" style="rounded=1;whiteSpace=wrap;html=1;" parent="1" vertex="1">
          <mxGeometry x="370" y="610" width="70" height="40" as="geometry" />
        </mxCell>
        <mxCell id="HW3E6B3zxRdl9fnHACI2-136" value="" style="rounded=1;whiteSpace=wrap;html=1;" parent="1" vertex="1">
          <mxGeometry x="370" y="660" width="70" height="40" as="geometry" />
        </mxCell>
        <mxCell id="HW3E6B3zxRdl9fnHACI2-137" value="" style="rounded=1;whiteSpace=wrap;html=1;" parent="1" vertex="1">
          <mxGeometry x="370" y="710" width="70" height="40" as="geometry" />
        </mxCell>
        <mxCell id="HW3E6B3zxRdl9fnHACI2-138" value="" style="rounded=1;whiteSpace=wrap;html=1;" parent="1" vertex="1">
          <mxGeometry x="370" y="760" width="70" height="40" as="geometry" />
        </mxCell>
        <mxCell id="HW3E6B3zxRdl9fnHACI2-139" value="" style="rounded=1;whiteSpace=wrap;html=1;" parent="1" vertex="1">
          <mxGeometry x="370" y="810" width="70" height="40" as="geometry" />
        </mxCell>
        <mxCell id="HW3E6B3zxRdl9fnHACI2-140" value="" style="rounded=1;whiteSpace=wrap;html=1;" parent="1" vertex="1">
          <mxGeometry x="460" y="410" width="70" height="40" as="geometry" />
        </mxCell>
        <mxCell id="HW3E6B3zxRdl9fnHACI2-141" value="" style="rounded=1;whiteSpace=wrap;html=1;" parent="1" vertex="1">
          <mxGeometry x="460" y="460" width="70" height="40" as="geometry" />
        </mxCell>
        <mxCell id="HW3E6B3zxRdl9fnHACI2-142" value="" style="rounded=1;whiteSpace=wrap;html=1;" parent="1" vertex="1">
          <mxGeometry x="460" y="510" width="70" height="40" as="geometry" />
        </mxCell>
        <mxCell id="HW3E6B3zxRdl9fnHACI2-143" value="" style="rounded=1;whiteSpace=wrap;html=1;" parent="1" vertex="1">
          <mxGeometry x="460" y="560" width="70" height="40" as="geometry" />
        </mxCell>
        <mxCell id="HW3E6B3zxRdl9fnHACI2-144" value="" style="rounded=1;whiteSpace=wrap;html=1;" parent="1" vertex="1">
          <mxGeometry x="460" y="610" width="70" height="40" as="geometry" />
        </mxCell>
        <mxCell id="HW3E6B3zxRdl9fnHACI2-145" value="" style="rounded=1;whiteSpace=wrap;html=1;" parent="1" vertex="1">
          <mxGeometry x="460" y="660" width="70" height="40" as="geometry" />
        </mxCell>
        <mxCell id="HW3E6B3zxRdl9fnHACI2-146" value="" style="rounded=1;whiteSpace=wrap;html=1;" parent="1" vertex="1">
          <mxGeometry x="460" y="710" width="70" height="40" as="geometry" />
        </mxCell>
        <mxCell id="HW3E6B3zxRdl9fnHACI2-147" value="" style="rounded=1;whiteSpace=wrap;html=1;" parent="1" vertex="1">
          <mxGeometry x="460" y="760" width="70" height="40" as="geometry" />
        </mxCell>
        <mxCell id="HW3E6B3zxRdl9fnHACI2-148" value="" style="rounded=1;whiteSpace=wrap;html=1;" parent="1" vertex="1">
          <mxGeometry x="460" y="810" width="70" height="40" as="geometry" />
        </mxCell>
        <mxCell id="HW3E6B3zxRdl9fnHACI2-149" value="" style="rounded=1;whiteSpace=wrap;html=1;" parent="1" vertex="1">
          <mxGeometry x="550" y="410" width="70" height="40" as="geometry" />
        </mxCell>
        <mxCell id="HW3E6B3zxRdl9fnHACI2-150" value="" style="rounded=1;whiteSpace=wrap;html=1;" parent="1" vertex="1">
          <mxGeometry x="550" y="460" width="70" height="40" as="geometry" />
        </mxCell>
        <mxCell id="HW3E6B3zxRdl9fnHACI2-151" value="" style="rounded=1;whiteSpace=wrap;html=1;" parent="1" vertex="1">
          <mxGeometry x="550" y="510" width="70" height="40" as="geometry" />
        </mxCell>
        <mxCell id="HW3E6B3zxRdl9fnHACI2-152" value="" style="rounded=1;whiteSpace=wrap;html=1;" parent="1" vertex="1">
          <mxGeometry x="550" y="560" width="70" height="40" as="geometry" />
        </mxCell>
        <mxCell id="HW3E6B3zxRdl9fnHACI2-153" value="" style="rounded=1;whiteSpace=wrap;html=1;" parent="1" vertex="1">
          <mxGeometry x="550" y="610" width="70" height="40" as="geometry" />
        </mxCell>
        <mxCell id="HW3E6B3zxRdl9fnHACI2-154" value="" style="rounded=1;whiteSpace=wrap;html=1;" parent="1" vertex="1">
          <mxGeometry x="550" y="660" width="70" height="40" as="geometry" />
        </mxCell>
        <mxCell id="HW3E6B3zxRdl9fnHACI2-155" value="" style="rounded=1;whiteSpace=wrap;html=1;" parent="1" vertex="1">
          <mxGeometry x="550" y="710" width="70" height="40" as="geometry" />
        </mxCell>
        <mxCell id="HW3E6B3zxRdl9fnHACI2-156" value="" style="rounded=1;whiteSpace=wrap;html=1;" parent="1" vertex="1">
          <mxGeometry x="550" y="760" width="70" height="40" as="geometry" />
        </mxCell>
        <mxCell id="HW3E6B3zxRdl9fnHACI2-157" value="" style="rounded=1;whiteSpace=wrap;html=1;" parent="1" vertex="1">
          <mxGeometry x="550" y="810" width="70" height="40" as="geometry" />
        </mxCell>
        <mxCell id="HW3E6B3zxRdl9fnHACI2-158" value="" style="rounded=1;whiteSpace=wrap;html=1;" parent="1" vertex="1">
          <mxGeometry x="640" y="410" width="70" height="40" as="geometry" />
        </mxCell>
        <mxCell id="HW3E6B3zxRdl9fnHACI2-159" value="" style="rounded=1;whiteSpace=wrap;html=1;" parent="1" vertex="1">
          <mxGeometry x="640" y="460" width="70" height="40" as="geometry" />
        </mxCell>
        <mxCell id="HW3E6B3zxRdl9fnHACI2-160" value="" style="rounded=1;whiteSpace=wrap;html=1;" parent="1" vertex="1">
          <mxGeometry x="640" y="510" width="70" height="40" as="geometry" />
        </mxCell>
        <mxCell id="HW3E6B3zxRdl9fnHACI2-161" value="" style="rounded=1;whiteSpace=wrap;html=1;" parent="1" vertex="1">
          <mxGeometry x="640" y="560" width="70" height="40" as="geometry" />
        </mxCell>
        <mxCell id="HW3E6B3zxRdl9fnHACI2-162" value="" style="rounded=1;whiteSpace=wrap;html=1;" parent="1" vertex="1">
          <mxGeometry x="640" y="610" width="70" height="40" as="geometry" />
        </mxCell>
        <mxCell id="HW3E6B3zxRdl9fnHACI2-163" value="" style="rounded=1;whiteSpace=wrap;html=1;" parent="1" vertex="1">
          <mxGeometry x="640" y="660" width="70" height="40" as="geometry" />
        </mxCell>
        <mxCell id="HW3E6B3zxRdl9fnHACI2-164" value="" style="rounded=1;whiteSpace=wrap;html=1;" parent="1" vertex="1">
          <mxGeometry x="640" y="710" width="70" height="40" as="geometry" />
        </mxCell>
        <mxCell id="HW3E6B3zxRdl9fnHACI2-165" value="" style="rounded=1;whiteSpace=wrap;html=1;" parent="1" vertex="1">
          <mxGeometry x="640" y="760" width="70" height="40" as="geometry" />
        </mxCell>
        <mxCell id="HW3E6B3zxRdl9fnHACI2-166" value="" style="rounded=1;whiteSpace=wrap;html=1;" parent="1" vertex="1">
          <mxGeometry x="640" y="810" width="70" height="40" as="geometry" />
        </mxCell>
        <mxCell id="HW3E6B3zxRdl9fnHACI2-167" value="Increment PC" style="rounded=1;whiteSpace=wrap;html=1;" parent="1" vertex="1">
          <mxGeometry x="-80" y="1020" width="160" height="40" as="geometry" />
        </mxCell>
        <mxCell id="HW3E6B3zxRdl9fnHACI2-168" value="Step 6" style="text;html=1;align=center;verticalAlign=middle;whiteSpace=wrap;rounded=0;" parent="1" vertex="1">
          <mxGeometry x="-770" y="565" width="60" height="30" as="geometry" />
        </mxCell>
        <mxCell id="HW3E6B3zxRdl9fnHACI2-170" value="Step 7" style="text;html=1;align=center;verticalAlign=middle;whiteSpace=wrap;rounded=0;" parent="1" vertex="1">
          <mxGeometry x="-770" y="615" width="60" height="30" as="geometry" />
        </mxCell>
        <mxCell id="HW3E6B3zxRdl9fnHACI2-171" value="Step 8" style="text;html=1;align=center;verticalAlign=middle;whiteSpace=wrap;rounded=0;" parent="1" vertex="1">
          <mxGeometry x="-770" y="665" width="60" height="30" as="geometry" />
        </mxCell>
        <mxCell id="HW3E6B3zxRdl9fnHACI2-172" value="Step 9" style="text;html=1;align=center;verticalAlign=middle;whiteSpace=wrap;rounded=0;" parent="1" vertex="1">
          <mxGeometry x="-770" y="715" width="60" height="30" as="geometry" />
        </mxCell>
        <mxCell id="HW3E6B3zxRdl9fnHACI2-173" value="Step A" style="text;html=1;align=center;verticalAlign=middle;whiteSpace=wrap;rounded=0;" parent="1" vertex="1">
          <mxGeometry x="-770" y="765" width="60" height="30" as="geometry" />
        </mxCell>
        <mxCell id="HW3E6B3zxRdl9fnHACI2-174" value="Step B" style="text;html=1;align=center;verticalAlign=middle;whiteSpace=wrap;rounded=0;" parent="1" vertex="1">
          <mxGeometry x="-770" y="815" width="60" height="30" as="geometry" />
        </mxCell>
        <mxCell id="HW3E6B3zxRdl9fnHACI2-175" value="Step C" style="text;html=1;align=center;verticalAlign=middle;whiteSpace=wrap;rounded=0;" parent="1" vertex="1">
          <mxGeometry x="-770" y="865" width="60" height="30" as="geometry" />
        </mxCell>
        <mxCell id="HW3E6B3zxRdl9fnHACI2-176" value="Step D" style="text;html=1;align=center;verticalAlign=middle;whiteSpace=wrap;rounded=0;" parent="1" vertex="1">
          <mxGeometry x="-770" y="915" width="60" height="30" as="geometry" />
        </mxCell>
        <mxCell id="HW3E6B3zxRdl9fnHACI2-178" value="Step E" style="text;html=1;align=center;verticalAlign=middle;whiteSpace=wrap;rounded=0;" parent="1" vertex="1">
          <mxGeometry x="-770" y="965" width="60" height="30" as="geometry" />
        </mxCell>
        <mxCell id="HW3E6B3zxRdl9fnHACI2-179" value="Step F" style="text;html=1;align=center;verticalAlign=middle;whiteSpace=wrap;rounded=0;" parent="1" vertex="1">
          <mxGeometry x="-140" y="1025" width="60" height="30" as="geometry" />
        </mxCell>
        <mxCell id="HW3E6B3zxRdl9fnHACI2-180" value="4-bit to 16 enable line decoder" style="rounded=1;whiteSpace=wrap;html=1;" parent="1" vertex="1">
          <mxGeometry x="-720" y="290" width="1440" height="40" as="geometry" />
        </mxCell>
        <mxCell id="HW3E6B3zxRdl9fnHACI2-181" value="" style="endArrow=classic;html=1;rounded=0;exitX=0.5;exitY=1;exitDx=0;exitDy=0;" parent="1" edge="1">
          <mxGeometry width="50" height="50" relative="1" as="geometry">
            <mxPoint x="-40" y="330" as="sourcePoint" />
            <mxPoint x="-40" y="360" as="targetPoint" />
          </mxGeometry>
        </mxCell>
        <mxCell id="HW3E6B3zxRdl9fnHACI2-182" value="" style="endArrow=classic;html=1;rounded=0;exitX=0.5;exitY=1;exitDx=0;exitDy=0;" parent="1" edge="1">
          <mxGeometry width="50" height="50" relative="1" as="geometry">
            <mxPoint x="-135.2" y="330" as="sourcePoint" />
            <mxPoint x="-135.2" y="360" as="targetPoint" />
          </mxGeometry>
        </mxCell>
        <mxCell id="HW3E6B3zxRdl9fnHACI2-183" value="" style="endArrow=classic;html=1;rounded=0;exitX=0.5;exitY=1;exitDx=0;exitDy=0;" parent="1" edge="1">
          <mxGeometry width="50" height="50" relative="1" as="geometry">
            <mxPoint x="-224.8" y="330" as="sourcePoint" />
            <mxPoint x="-224.8" y="360" as="targetPoint" />
          </mxGeometry>
        </mxCell>
        <mxCell id="HW3E6B3zxRdl9fnHACI2-184" value="" style="endArrow=classic;html=1;rounded=0;exitX=0.5;exitY=1;exitDx=0;exitDy=0;" parent="1" edge="1">
          <mxGeometry width="50" height="50" relative="1" as="geometry">
            <mxPoint x="-320" y="330" as="sourcePoint" />
            <mxPoint x="-320" y="360" as="targetPoint" />
          </mxGeometry>
        </mxCell>
        <mxCell id="HW3E6B3zxRdl9fnHACI2-185" value="" style="endArrow=classic;html=1;rounded=0;exitX=0.5;exitY=1;exitDx=0;exitDy=0;" parent="1" edge="1">
          <mxGeometry width="50" height="50" relative="1" as="geometry">
            <mxPoint x="-400" y="330" as="sourcePoint" />
            <mxPoint x="-400" y="360" as="targetPoint" />
          </mxGeometry>
        </mxCell>
        <mxCell id="HW3E6B3zxRdl9fnHACI2-186" value="" style="endArrow=classic;html=1;rounded=0;exitX=0.5;exitY=1;exitDx=0;exitDy=0;" parent="1" edge="1">
          <mxGeometry width="50" height="50" relative="1" as="geometry">
            <mxPoint x="-495.2" y="330" as="sourcePoint" />
            <mxPoint x="-495.2" y="360" as="targetPoint" />
          </mxGeometry>
        </mxCell>
        <mxCell id="HW3E6B3zxRdl9fnHACI2-187" value="" style="endArrow=classic;html=1;rounded=0;exitX=0.5;exitY=1;exitDx=0;exitDy=0;" parent="1" edge="1">
          <mxGeometry width="50" height="50" relative="1" as="geometry">
            <mxPoint x="-584.8" y="330" as="sourcePoint" />
            <mxPoint x="-584.8" y="360" as="targetPoint" />
          </mxGeometry>
        </mxCell>
        <mxCell id="HW3E6B3zxRdl9fnHACI2-188" value="" style="endArrow=classic;html=1;rounded=0;exitX=0.5;exitY=1;exitDx=0;exitDy=0;" parent="1" edge="1">
          <mxGeometry width="50" height="50" relative="1" as="geometry">
            <mxPoint x="-680" y="330" as="sourcePoint" />
            <mxPoint x="-680" y="360" as="targetPoint" />
          </mxGeometry>
        </mxCell>
        <mxCell id="HW3E6B3zxRdl9fnHACI2-189" value="" style="endArrow=classic;html=1;rounded=0;exitX=0.5;exitY=1;exitDx=0;exitDy=0;" parent="1" edge="1">
          <mxGeometry width="50" height="50" relative="1" as="geometry">
            <mxPoint x="680" y="330" as="sourcePoint" />
            <mxPoint x="680" y="360" as="targetPoint" />
          </mxGeometry>
        </mxCell>
        <mxCell id="HW3E6B3zxRdl9fnHACI2-190" value="" style="endArrow=classic;html=1;rounded=0;exitX=0.5;exitY=1;exitDx=0;exitDy=0;" parent="1" edge="1">
          <mxGeometry width="50" height="50" relative="1" as="geometry">
            <mxPoint x="584.8" y="330" as="sourcePoint" />
            <mxPoint x="584.8" y="360" as="targetPoint" />
          </mxGeometry>
        </mxCell>
        <mxCell id="HW3E6B3zxRdl9fnHACI2-191" value="" style="endArrow=classic;html=1;rounded=0;exitX=0.5;exitY=1;exitDx=0;exitDy=0;" parent="1" edge="1">
          <mxGeometry width="50" height="50" relative="1" as="geometry">
            <mxPoint x="495.2" y="330" as="sourcePoint" />
            <mxPoint x="495.2" y="360" as="targetPoint" />
          </mxGeometry>
        </mxCell>
        <mxCell id="HW3E6B3zxRdl9fnHACI2-192" value="" style="endArrow=classic;html=1;rounded=0;exitX=0.5;exitY=1;exitDx=0;exitDy=0;" parent="1" edge="1">
          <mxGeometry width="50" height="50" relative="1" as="geometry">
            <mxPoint x="400" y="330" as="sourcePoint" />
            <mxPoint x="400" y="360" as="targetPoint" />
          </mxGeometry>
        </mxCell>
        <mxCell id="HW3E6B3zxRdl9fnHACI2-193" value="" style="endArrow=classic;html=1;rounded=0;exitX=0.5;exitY=1;exitDx=0;exitDy=0;" parent="1" edge="1">
          <mxGeometry width="50" height="50" relative="1" as="geometry">
            <mxPoint x="320" y="330" as="sourcePoint" />
            <mxPoint x="320" y="360" as="targetPoint" />
          </mxGeometry>
        </mxCell>
        <mxCell id="HW3E6B3zxRdl9fnHACI2-194" value="" style="endArrow=classic;html=1;rounded=0;exitX=0.5;exitY=1;exitDx=0;exitDy=0;" parent="1" edge="1">
          <mxGeometry width="50" height="50" relative="1" as="geometry">
            <mxPoint x="224.8" y="330" as="sourcePoint" />
            <mxPoint x="224.8" y="360" as="targetPoint" />
          </mxGeometry>
        </mxCell>
        <mxCell id="HW3E6B3zxRdl9fnHACI2-195" value="" style="endArrow=classic;html=1;rounded=0;exitX=0.5;exitY=1;exitDx=0;exitDy=0;" parent="1" edge="1">
          <mxGeometry width="50" height="50" relative="1" as="geometry">
            <mxPoint x="135.20000000000005" y="330" as="sourcePoint" />
            <mxPoint x="135.20000000000005" y="360" as="targetPoint" />
          </mxGeometry>
        </mxCell>
        <mxCell id="HW3E6B3zxRdl9fnHACI2-196" value="" style="endArrow=classic;html=1;rounded=0;exitX=0.5;exitY=1;exitDx=0;exitDy=0;" parent="1" edge="1">
          <mxGeometry width="50" height="50" relative="1" as="geometry">
            <mxPoint x="40" y="330" as="sourcePoint" />
            <mxPoint x="40" y="360" as="targetPoint" />
          </mxGeometry>
        </mxCell>
        <mxCell id="G2RKpx-oFFXxM5O7VMvq-3" value="Write IR back into Core Memory&lt;div&gt;at PC to refresh destructive read&lt;/div&gt;" style="rounded=1;whiteSpace=wrap;html=1;" vertex="1" parent="1">
          <mxGeometry x="-100" y="150" width="200" height="40" as="geometry" />
        </mxCell>
        <mxCell id="G2RKpx-oFFXxM5O7VMvq-4" value="" style="endArrow=classic;html=1;rounded=0;exitX=0.5;exitY=1;exitDx=0;exitDy=0;entryX=0.5;entryY=0;entryDx=0;entryDy=0;" edge="1" parent="1">
          <mxGeometry width="50" height="50" relative="1" as="geometry">
            <mxPoint y="190" as="sourcePoint" />
            <mxPoint y="220" as="targetPoint" />
          </mxGeometry>
        </mxCell>
        <mxCell id="G2RKpx-oFFXxM5O7VMvq-5" value="" style="endArrow=classic;html=1;rounded=0;entryX=0.5;entryY=0;entryDx=0;entryDy=0;exitX=0.5;exitY=1;exitDx=0;exitDy=0;" edge="1" parent="1" source="iZeeqE-felRHn36er2oS-2" target="HW3E6B3zxRdl9fnHACI2-180">
          <mxGeometry width="50" height="50" relative="1" as="geometry">
            <mxPoint x="-150" y="350" as="sourcePoint" />
            <mxPoint x="-100" y="300" as="targetPoint" />
          </mxGeometry>
        </mxCell>
        <mxCell id="G2RKpx-oFFXxM5O7VMvq-6" value="" style="endArrow=classic;html=1;rounded=1;exitX=1;exitY=0.5;exitDx=0;exitDy=0;curved=0;" edge="1" parent="1" source="iZeeqE-felRHn36er2oS-2">
          <mxGeometry width="50" height="50" relative="1" as="geometry">
            <mxPoint x="170" y="350" as="sourcePoint" />
            <mxPoint x="1000" y="290" as="targetPoint" />
            <Array as="points">
              <mxPoint x="1000" y="240" />
            </Array>
          </mxGeometry>
        </mxCell>
        <mxCell id="G2RKpx-oFFXxM5O7VMvq-7" value="3-bit to 8 Drum/IO decoder" style="rounded=1;whiteSpace=wrap;html=1;" vertex="1" parent="1">
          <mxGeometry x="830" y="290" width="370" height="40" as="geometry" />
        </mxCell>
        <mxCell id="G2RKpx-oFFXxM5O7VMvq-8" value="State &#39;001&#39;" style="rounded=1;whiteSpace=wrap;html=1;" vertex="1" parent="1">
          <mxGeometry x="850" y="360" width="70" height="40" as="geometry" />
        </mxCell>
        <mxCell id="G2RKpx-oFFXxM5O7VMvq-9" value="State &#39;010&#39;" style="rounded=1;whiteSpace=wrap;html=1;" vertex="1" parent="1">
          <mxGeometry x="940" y="360" width="70" height="40" as="geometry" />
        </mxCell>
        <mxCell id="G2RKpx-oFFXxM5O7VMvq-10" value="State &#39;101&#39;" style="rounded=1;whiteSpace=wrap;html=1;" vertex="1" parent="1">
          <mxGeometry x="1030" y="360" width="70" height="40" as="geometry" />
        </mxCell>
        <mxCell id="G2RKpx-oFFXxM5O7VMvq-11" value="State &#39;&lt;span style=&quot;background-color: initial;&quot;&gt;110&#39;&lt;/span&gt;" style="rounded=1;whiteSpace=wrap;html=1;" vertex="1" parent="1">
          <mxGeometry x="1120" y="360" width="70" height="40" as="geometry" />
        </mxCell>
        <mxCell id="G2RKpx-oFFXxM5O7VMvq-12" value="" style="rounded=1;whiteSpace=wrap;html=1;" vertex="1" parent="1">
          <mxGeometry x="850" y="410" width="70" height="40" as="geometry" />
        </mxCell>
        <mxCell id="G2RKpx-oFFXxM5O7VMvq-13" value="" style="rounded=1;whiteSpace=wrap;html=1;" vertex="1" parent="1">
          <mxGeometry x="850" y="460" width="70" height="40" as="geometry" />
        </mxCell>
        <mxCell id="G2RKpx-oFFXxM5O7VMvq-14" value="" style="rounded=1;whiteSpace=wrap;html=1;" vertex="1" parent="1">
          <mxGeometry x="850" y="510" width="70" height="40" as="geometry" />
        </mxCell>
        <mxCell id="G2RKpx-oFFXxM5O7VMvq-15" value="" style="rounded=1;whiteSpace=wrap;html=1;" vertex="1" parent="1">
          <mxGeometry x="850" y="560" width="70" height="40" as="geometry" />
        </mxCell>
        <mxCell id="G2RKpx-oFFXxM5O7VMvq-16" value="" style="rounded=1;whiteSpace=wrap;html=1;" vertex="1" parent="1">
          <mxGeometry x="850" y="610" width="70" height="40" as="geometry" />
        </mxCell>
        <mxCell id="G2RKpx-oFFXxM5O7VMvq-17" value="" style="rounded=1;whiteSpace=wrap;html=1;" vertex="1" parent="1">
          <mxGeometry x="850" y="660" width="70" height="40" as="geometry" />
        </mxCell>
        <mxCell id="G2RKpx-oFFXxM5O7VMvq-18" value="" style="rounded=1;whiteSpace=wrap;html=1;" vertex="1" parent="1">
          <mxGeometry x="850" y="710" width="70" height="40" as="geometry" />
        </mxCell>
        <mxCell id="G2RKpx-oFFXxM5O7VMvq-19" value="" style="rounded=1;whiteSpace=wrap;html=1;" vertex="1" parent="1">
          <mxGeometry x="850" y="760" width="70" height="40" as="geometry" />
        </mxCell>
        <mxCell id="G2RKpx-oFFXxM5O7VMvq-20" value="" style="rounded=1;whiteSpace=wrap;html=1;" vertex="1" parent="1">
          <mxGeometry x="850" y="810" width="70" height="40" as="geometry" />
        </mxCell>
        <mxCell id="G2RKpx-oFFXxM5O7VMvq-21" value="" style="rounded=1;whiteSpace=wrap;html=1;" vertex="1" parent="1">
          <mxGeometry x="940" y="410" width="70" height="40" as="geometry" />
        </mxCell>
        <mxCell id="G2RKpx-oFFXxM5O7VMvq-22" value="" style="rounded=1;whiteSpace=wrap;html=1;" vertex="1" parent="1">
          <mxGeometry x="940" y="460" width="70" height="40" as="geometry" />
        </mxCell>
        <mxCell id="G2RKpx-oFFXxM5O7VMvq-23" value="" style="rounded=1;whiteSpace=wrap;html=1;" vertex="1" parent="1">
          <mxGeometry x="940" y="510" width="70" height="40" as="geometry" />
        </mxCell>
        <mxCell id="G2RKpx-oFFXxM5O7VMvq-24" value="" style="rounded=1;whiteSpace=wrap;html=1;" vertex="1" parent="1">
          <mxGeometry x="940" y="560" width="70" height="40" as="geometry" />
        </mxCell>
        <mxCell id="G2RKpx-oFFXxM5O7VMvq-25" value="" style="rounded=1;whiteSpace=wrap;html=1;" vertex="1" parent="1">
          <mxGeometry x="940" y="610" width="70" height="40" as="geometry" />
        </mxCell>
        <mxCell id="G2RKpx-oFFXxM5O7VMvq-26" value="" style="rounded=1;whiteSpace=wrap;html=1;" vertex="1" parent="1">
          <mxGeometry x="940" y="660" width="70" height="40" as="geometry" />
        </mxCell>
        <mxCell id="G2RKpx-oFFXxM5O7VMvq-27" value="" style="rounded=1;whiteSpace=wrap;html=1;" vertex="1" parent="1">
          <mxGeometry x="940" y="710" width="70" height="40" as="geometry" />
        </mxCell>
        <mxCell id="G2RKpx-oFFXxM5O7VMvq-28" value="" style="rounded=1;whiteSpace=wrap;html=1;" vertex="1" parent="1">
          <mxGeometry x="940" y="760" width="70" height="40" as="geometry" />
        </mxCell>
        <mxCell id="G2RKpx-oFFXxM5O7VMvq-29" value="" style="rounded=1;whiteSpace=wrap;html=1;" vertex="1" parent="1">
          <mxGeometry x="940" y="810" width="70" height="40" as="geometry" />
        </mxCell>
        <mxCell id="G2RKpx-oFFXxM5O7VMvq-30" value="" style="rounded=1;whiteSpace=wrap;html=1;" vertex="1" parent="1">
          <mxGeometry x="1030" y="410" width="70" height="40" as="geometry" />
        </mxCell>
        <mxCell id="G2RKpx-oFFXxM5O7VMvq-31" value="" style="rounded=1;whiteSpace=wrap;html=1;" vertex="1" parent="1">
          <mxGeometry x="1030" y="460" width="70" height="40" as="geometry" />
        </mxCell>
        <mxCell id="G2RKpx-oFFXxM5O7VMvq-32" value="" style="rounded=1;whiteSpace=wrap;html=1;" vertex="1" parent="1">
          <mxGeometry x="1030" y="510" width="70" height="40" as="geometry" />
        </mxCell>
        <mxCell id="G2RKpx-oFFXxM5O7VMvq-33" value="" style="rounded=1;whiteSpace=wrap;html=1;" vertex="1" parent="1">
          <mxGeometry x="1030" y="560" width="70" height="40" as="geometry" />
        </mxCell>
        <mxCell id="G2RKpx-oFFXxM5O7VMvq-34" value="" style="rounded=1;whiteSpace=wrap;html=1;" vertex="1" parent="1">
          <mxGeometry x="1030" y="610" width="70" height="40" as="geometry" />
        </mxCell>
        <mxCell id="G2RKpx-oFFXxM5O7VMvq-35" value="" style="rounded=1;whiteSpace=wrap;html=1;" vertex="1" parent="1">
          <mxGeometry x="1030" y="660" width="70" height="40" as="geometry" />
        </mxCell>
        <mxCell id="G2RKpx-oFFXxM5O7VMvq-36" value="" style="rounded=1;whiteSpace=wrap;html=1;" vertex="1" parent="1">
          <mxGeometry x="1030" y="710" width="70" height="40" as="geometry" />
        </mxCell>
        <mxCell id="G2RKpx-oFFXxM5O7VMvq-37" value="" style="rounded=1;whiteSpace=wrap;html=1;" vertex="1" parent="1">
          <mxGeometry x="1030" y="760" width="70" height="40" as="geometry" />
        </mxCell>
        <mxCell id="G2RKpx-oFFXxM5O7VMvq-38" value="" style="rounded=1;whiteSpace=wrap;html=1;" vertex="1" parent="1">
          <mxGeometry x="1030" y="810" width="70" height="40" as="geometry" />
        </mxCell>
        <mxCell id="G2RKpx-oFFXxM5O7VMvq-39" value="" style="rounded=1;whiteSpace=wrap;html=1;" vertex="1" parent="1">
          <mxGeometry x="1120" y="410" width="70" height="40" as="geometry" />
        </mxCell>
        <mxCell id="G2RKpx-oFFXxM5O7VMvq-40" value="" style="rounded=1;whiteSpace=wrap;html=1;" vertex="1" parent="1">
          <mxGeometry x="1120" y="460" width="70" height="40" as="geometry" />
        </mxCell>
        <mxCell id="G2RKpx-oFFXxM5O7VMvq-41" value="" style="rounded=1;whiteSpace=wrap;html=1;" vertex="1" parent="1">
          <mxGeometry x="1120" y="510" width="70" height="40" as="geometry" />
        </mxCell>
        <mxCell id="G2RKpx-oFFXxM5O7VMvq-42" value="" style="rounded=1;whiteSpace=wrap;html=1;" vertex="1" parent="1">
          <mxGeometry x="1120" y="560" width="70" height="40" as="geometry" />
        </mxCell>
        <mxCell id="G2RKpx-oFFXxM5O7VMvq-43" value="" style="rounded=1;whiteSpace=wrap;html=1;" vertex="1" parent="1">
          <mxGeometry x="1120" y="610" width="70" height="40" as="geometry" />
        </mxCell>
        <mxCell id="G2RKpx-oFFXxM5O7VMvq-44" value="" style="rounded=1;whiteSpace=wrap;html=1;" vertex="1" parent="1">
          <mxGeometry x="1120" y="660" width="70" height="40" as="geometry" />
        </mxCell>
        <mxCell id="G2RKpx-oFFXxM5O7VMvq-45" value="" style="rounded=1;whiteSpace=wrap;html=1;" vertex="1" parent="1">
          <mxGeometry x="1120" y="710" width="70" height="40" as="geometry" />
        </mxCell>
        <mxCell id="G2RKpx-oFFXxM5O7VMvq-46" value="" style="rounded=1;whiteSpace=wrap;html=1;" vertex="1" parent="1">
          <mxGeometry x="1120" y="760" width="70" height="40" as="geometry" />
        </mxCell>
        <mxCell id="G2RKpx-oFFXxM5O7VMvq-47" value="" style="rounded=1;whiteSpace=wrap;html=1;" vertex="1" parent="1">
          <mxGeometry x="1120" y="810" width="70" height="40" as="geometry" />
        </mxCell>
        <mxCell id="G2RKpx-oFFXxM5O7VMvq-48" value="" style="endArrow=classic;html=1;rounded=0;exitX=0.5;exitY=1;exitDx=0;exitDy=0;" edge="1" parent="1">
          <mxGeometry width="50" height="50" relative="1" as="geometry">
            <mxPoint x="890" y="330" as="sourcePoint" />
            <mxPoint x="890" y="360" as="targetPoint" />
          </mxGeometry>
        </mxCell>
        <mxCell id="G2RKpx-oFFXxM5O7VMvq-49" value="" style="endArrow=classic;html=1;rounded=0;exitX=0.5;exitY=1;exitDx=0;exitDy=0;" edge="1" parent="1">
          <mxGeometry width="50" height="50" relative="1" as="geometry">
            <mxPoint x="980" y="330" as="sourcePoint" />
            <mxPoint x="980" y="360" as="targetPoint" />
          </mxGeometry>
        </mxCell>
        <mxCell id="G2RKpx-oFFXxM5O7VMvq-50" value="" style="endArrow=classic;html=1;rounded=0;exitX=0.5;exitY=1;exitDx=0;exitDy=0;" edge="1" parent="1">
          <mxGeometry width="50" height="50" relative="1" as="geometry">
            <mxPoint x="1070" y="330" as="sourcePoint" />
            <mxPoint x="1070" y="360" as="targetPoint" />
          </mxGeometry>
        </mxCell>
        <mxCell id="G2RKpx-oFFXxM5O7VMvq-51" value="" style="endArrow=classic;html=1;rounded=0;exitX=0.5;exitY=1;exitDx=0;exitDy=0;" edge="1" parent="1">
          <mxGeometry width="50" height="50" relative="1" as="geometry">
            <mxPoint x="1160" y="330" as="sourcePoint" />
            <mxPoint x="1160" y="360" as="targetPoint" />
          </mxGeometry>
        </mxCell>
        <mxCell id="G2RKpx-oFFXxM5O7VMvq-52" value="" style="rounded=1;whiteSpace=wrap;html=1;" vertex="1" parent="1">
          <mxGeometry x="-710" y="860" width="70" height="40" as="geometry" />
        </mxCell>
        <mxCell id="G2RKpx-oFFXxM5O7VMvq-53" value="" style="rounded=1;whiteSpace=wrap;html=1;" vertex="1" parent="1">
          <mxGeometry x="-710" y="910" width="70" height="40" as="geometry" />
        </mxCell>
        <mxCell id="G2RKpx-oFFXxM5O7VMvq-54" value="" style="rounded=1;whiteSpace=wrap;html=1;" vertex="1" parent="1">
          <mxGeometry x="-710" y="960" width="70" height="40" as="geometry" />
        </mxCell>
        <mxCell id="G2RKpx-oFFXxM5O7VMvq-55" value="" style="rounded=1;whiteSpace=wrap;html=1;" vertex="1" parent="1">
          <mxGeometry x="-620" y="860" width="70" height="40" as="geometry" />
        </mxCell>
        <mxCell id="G2RKpx-oFFXxM5O7VMvq-56" value="" style="rounded=1;whiteSpace=wrap;html=1;" vertex="1" parent="1">
          <mxGeometry x="-620" y="910" width="70" height="40" as="geometry" />
        </mxCell>
        <mxCell id="G2RKpx-oFFXxM5O7VMvq-57" value="" style="rounded=1;whiteSpace=wrap;html=1;" vertex="1" parent="1">
          <mxGeometry x="-620" y="960" width="70" height="40" as="geometry" />
        </mxCell>
        <mxCell id="G2RKpx-oFFXxM5O7VMvq-58" value="" style="rounded=1;whiteSpace=wrap;html=1;" vertex="1" parent="1">
          <mxGeometry x="-530" y="860" width="70" height="40" as="geometry" />
        </mxCell>
        <mxCell id="G2RKpx-oFFXxM5O7VMvq-59" value="" style="rounded=1;whiteSpace=wrap;html=1;" vertex="1" parent="1">
          <mxGeometry x="-530" y="910" width="70" height="40" as="geometry" />
        </mxCell>
        <mxCell id="G2RKpx-oFFXxM5O7VMvq-60" value="" style="rounded=1;whiteSpace=wrap;html=1;" vertex="1" parent="1">
          <mxGeometry x="-530" y="960" width="70" height="40" as="geometry" />
        </mxCell>
        <mxCell id="G2RKpx-oFFXxM5O7VMvq-61" value="" style="rounded=1;whiteSpace=wrap;html=1;" vertex="1" parent="1">
          <mxGeometry x="-440" y="860" width="70" height="40" as="geometry" />
        </mxCell>
        <mxCell id="G2RKpx-oFFXxM5O7VMvq-62" value="" style="rounded=1;whiteSpace=wrap;html=1;" vertex="1" parent="1">
          <mxGeometry x="-440" y="910" width="70" height="40" as="geometry" />
        </mxCell>
        <mxCell id="G2RKpx-oFFXxM5O7VMvq-63" value="" style="rounded=1;whiteSpace=wrap;html=1;" vertex="1" parent="1">
          <mxGeometry x="-440" y="960" width="70" height="40" as="geometry" />
        </mxCell>
        <mxCell id="G2RKpx-oFFXxM5O7VMvq-64" value="" style="rounded=1;whiteSpace=wrap;html=1;" vertex="1" parent="1">
          <mxGeometry x="-350" y="860" width="70" height="40" as="geometry" />
        </mxCell>
        <mxCell id="G2RKpx-oFFXxM5O7VMvq-65" value="" style="rounded=1;whiteSpace=wrap;html=1;" vertex="1" parent="1">
          <mxGeometry x="-350" y="910" width="70" height="40" as="geometry" />
        </mxCell>
        <mxCell id="G2RKpx-oFFXxM5O7VMvq-66" value="" style="rounded=1;whiteSpace=wrap;html=1;" vertex="1" parent="1">
          <mxGeometry x="-350" y="960" width="70" height="40" as="geometry" />
        </mxCell>
        <mxCell id="G2RKpx-oFFXxM5O7VMvq-67" value="" style="rounded=1;whiteSpace=wrap;html=1;" vertex="1" parent="1">
          <mxGeometry x="-260" y="860" width="70" height="40" as="geometry" />
        </mxCell>
        <mxCell id="G2RKpx-oFFXxM5O7VMvq-68" value="" style="rounded=1;whiteSpace=wrap;html=1;" vertex="1" parent="1">
          <mxGeometry x="-260" y="910" width="70" height="40" as="geometry" />
        </mxCell>
        <mxCell id="G2RKpx-oFFXxM5O7VMvq-69" value="" style="rounded=1;whiteSpace=wrap;html=1;" vertex="1" parent="1">
          <mxGeometry x="-260" y="960" width="70" height="40" as="geometry" />
        </mxCell>
        <mxCell id="G2RKpx-oFFXxM5O7VMvq-70" value="" style="rounded=1;whiteSpace=wrap;html=1;" vertex="1" parent="1">
          <mxGeometry x="-170" y="860" width="70" height="40" as="geometry" />
        </mxCell>
        <mxCell id="G2RKpx-oFFXxM5O7VMvq-71" value="" style="rounded=1;whiteSpace=wrap;html=1;" vertex="1" parent="1">
          <mxGeometry x="-170" y="910" width="70" height="40" as="geometry" />
        </mxCell>
        <mxCell id="G2RKpx-oFFXxM5O7VMvq-72" value="" style="rounded=1;whiteSpace=wrap;html=1;" vertex="1" parent="1">
          <mxGeometry x="-170" y="960" width="70" height="40" as="geometry" />
        </mxCell>
        <mxCell id="G2RKpx-oFFXxM5O7VMvq-73" value="" style="rounded=1;whiteSpace=wrap;html=1;" vertex="1" parent="1">
          <mxGeometry x="-80" y="860" width="70" height="40" as="geometry" />
        </mxCell>
        <mxCell id="G2RKpx-oFFXxM5O7VMvq-74" value="" style="rounded=1;whiteSpace=wrap;html=1;" vertex="1" parent="1">
          <mxGeometry x="-80" y="910" width="70" height="40" as="geometry" />
        </mxCell>
        <mxCell id="G2RKpx-oFFXxM5O7VMvq-75" value="" style="rounded=1;whiteSpace=wrap;html=1;" vertex="1" parent="1">
          <mxGeometry x="-80" y="960" width="70" height="40" as="geometry" />
        </mxCell>
        <mxCell id="G2RKpx-oFFXxM5O7VMvq-76" value="" style="rounded=1;whiteSpace=wrap;html=1;" vertex="1" parent="1">
          <mxGeometry x="10" y="860" width="70" height="40" as="geometry" />
        </mxCell>
        <mxCell id="G2RKpx-oFFXxM5O7VMvq-77" value="" style="rounded=1;whiteSpace=wrap;html=1;" vertex="1" parent="1">
          <mxGeometry x="10" y="910" width="70" height="40" as="geometry" />
        </mxCell>
        <mxCell id="G2RKpx-oFFXxM5O7VMvq-78" value="" style="rounded=1;whiteSpace=wrap;html=1;" vertex="1" parent="1">
          <mxGeometry x="10" y="960" width="70" height="40" as="geometry" />
        </mxCell>
        <mxCell id="G2RKpx-oFFXxM5O7VMvq-79" value="" style="rounded=1;whiteSpace=wrap;html=1;" vertex="1" parent="1">
          <mxGeometry x="100" y="860" width="70" height="40" as="geometry" />
        </mxCell>
        <mxCell id="G2RKpx-oFFXxM5O7VMvq-80" value="" style="rounded=1;whiteSpace=wrap;html=1;" vertex="1" parent="1">
          <mxGeometry x="100" y="910" width="70" height="40" as="geometry" />
        </mxCell>
        <mxCell id="G2RKpx-oFFXxM5O7VMvq-81" value="" style="rounded=1;whiteSpace=wrap;html=1;" vertex="1" parent="1">
          <mxGeometry x="100" y="960" width="70" height="40" as="geometry" />
        </mxCell>
        <mxCell id="G2RKpx-oFFXxM5O7VMvq-82" value="" style="rounded=1;whiteSpace=wrap;html=1;" vertex="1" parent="1">
          <mxGeometry x="190" y="860" width="70" height="40" as="geometry" />
        </mxCell>
        <mxCell id="G2RKpx-oFFXxM5O7VMvq-83" value="" style="rounded=1;whiteSpace=wrap;html=1;" vertex="1" parent="1">
          <mxGeometry x="190" y="910" width="70" height="40" as="geometry" />
        </mxCell>
        <mxCell id="G2RKpx-oFFXxM5O7VMvq-84" value="" style="rounded=1;whiteSpace=wrap;html=1;" vertex="1" parent="1">
          <mxGeometry x="190" y="960" width="70" height="40" as="geometry" />
        </mxCell>
        <mxCell id="G2RKpx-oFFXxM5O7VMvq-85" value="" style="rounded=1;whiteSpace=wrap;html=1;" vertex="1" parent="1">
          <mxGeometry x="280" y="860" width="70" height="40" as="geometry" />
        </mxCell>
        <mxCell id="G2RKpx-oFFXxM5O7VMvq-86" value="" style="rounded=1;whiteSpace=wrap;html=1;" vertex="1" parent="1">
          <mxGeometry x="280" y="910" width="70" height="40" as="geometry" />
        </mxCell>
        <mxCell id="G2RKpx-oFFXxM5O7VMvq-87" value="" style="rounded=1;whiteSpace=wrap;html=1;" vertex="1" parent="1">
          <mxGeometry x="280" y="960" width="70" height="40" as="geometry" />
        </mxCell>
        <mxCell id="G2RKpx-oFFXxM5O7VMvq-88" value="" style="rounded=1;whiteSpace=wrap;html=1;" vertex="1" parent="1">
          <mxGeometry x="370" y="860" width="70" height="40" as="geometry" />
        </mxCell>
        <mxCell id="G2RKpx-oFFXxM5O7VMvq-89" value="" style="rounded=1;whiteSpace=wrap;html=1;" vertex="1" parent="1">
          <mxGeometry x="370" y="910" width="70" height="40" as="geometry" />
        </mxCell>
        <mxCell id="G2RKpx-oFFXxM5O7VMvq-90" value="" style="rounded=1;whiteSpace=wrap;html=1;" vertex="1" parent="1">
          <mxGeometry x="370" y="960" width="70" height="40" as="geometry" />
        </mxCell>
        <mxCell id="G2RKpx-oFFXxM5O7VMvq-91" value="" style="rounded=1;whiteSpace=wrap;html=1;" vertex="1" parent="1">
          <mxGeometry x="460" y="860" width="70" height="40" as="geometry" />
        </mxCell>
        <mxCell id="G2RKpx-oFFXxM5O7VMvq-92" value="" style="rounded=1;whiteSpace=wrap;html=1;" vertex="1" parent="1">
          <mxGeometry x="460" y="910" width="70" height="40" as="geometry" />
        </mxCell>
        <mxCell id="G2RKpx-oFFXxM5O7VMvq-93" value="" style="rounded=1;whiteSpace=wrap;html=1;" vertex="1" parent="1">
          <mxGeometry x="460" y="960" width="70" height="40" as="geometry" />
        </mxCell>
        <mxCell id="G2RKpx-oFFXxM5O7VMvq-94" value="" style="rounded=1;whiteSpace=wrap;html=1;" vertex="1" parent="1">
          <mxGeometry x="550" y="860" width="70" height="40" as="geometry" />
        </mxCell>
        <mxCell id="G2RKpx-oFFXxM5O7VMvq-95" value="" style="rounded=1;whiteSpace=wrap;html=1;" vertex="1" parent="1">
          <mxGeometry x="550" y="910" width="70" height="40" as="geometry" />
        </mxCell>
        <mxCell id="G2RKpx-oFFXxM5O7VMvq-96" value="" style="rounded=1;whiteSpace=wrap;html=1;" vertex="1" parent="1">
          <mxGeometry x="550" y="960" width="70" height="40" as="geometry" />
        </mxCell>
        <mxCell id="G2RKpx-oFFXxM5O7VMvq-97" value="" style="rounded=1;whiteSpace=wrap;html=1;" vertex="1" parent="1">
          <mxGeometry x="640" y="860" width="70" height="40" as="geometry" />
        </mxCell>
        <mxCell id="G2RKpx-oFFXxM5O7VMvq-98" value="" style="rounded=1;whiteSpace=wrap;html=1;" vertex="1" parent="1">
          <mxGeometry x="640" y="910" width="70" height="40" as="geometry" />
        </mxCell>
        <mxCell id="G2RKpx-oFFXxM5O7VMvq-99" value="" style="rounded=1;whiteSpace=wrap;html=1;" vertex="1" parent="1">
          <mxGeometry x="640" y="960" width="70" height="40" as="geometry" />
        </mxCell>
      </root>
    </mxGraphModel>
  </diagram>
</mxfile>
